<svg width="352" height="216" viewBox="0 0 352 216" fill="none" xmlns="http://www.w3.org/2000/svg">
<rect width="352" height="216" fill="black"/>
<path d="M123.639 139V69.2H150.639C154.039 69.2 157.072 69.7333 159.739 70.8C162.406 71.8 164.639 73.2667 166.439 75.2C168.306 77.1333 169.706 79.4667 170.639 82.2C171.572 84.9333 172.039 88 172.039 91.4C172.039 94.8 171.572 97.8667 170.639 100.6C169.706 103.333 168.306 105.667 166.439 107.6C164.639 109.533 162.406 111.033 159.739 112.1C157.072 113.1 154.039 113.6 150.639 113.6H138.739V139H123.639ZM138.739 101.5H146.839C150.372 101.5 152.806 100.833 154.139 99.5C155.539 98.1667 156.239 95.9667 156.239 92.9V89.9C156.239 86.8333 155.539 84.6333 154.139 83.3C152.806 81.9667 150.372 81.3 146.839 81.3H138.739V101.5ZM185.4 139V126.9H204.2V80.1H203.3L189.1 98.7L179.5 91.2L196.2 69.2H219.2V126.9H234V139H185.4Z" fill="url(#paint0_linear_30_16)"/>
<defs>
<linearGradient id="paint0_linear_30_16" x1="176" y1="36" x2="176" y2="197" gradientUnits="userSpaceOnUse">
<stop offset="0.335" stop-color="#C084FC"/>
<stop offset="0.735" stop-color="#F472B6"/>
</linearGradient>
</defs>
</svg>
